<?xml version="1.0" standalone="no"?><!DOCTYPE svg PUBLIC "-//W3C//DTD SVG 1.1//EN" "http://www.w3.org/Graphics/SVG/1.1/DTD/svg11.dtd"><svg t="1537184874977" class="icon" style="" viewBox="0 0 1024 1024" version="1.1" xmlns="http://www.w3.org/2000/svg" p-id="6845" xmlns:xlink="http://www.w3.org/1999/xlink" width="200" height="200"><defs><style type="text/css"></style></defs><path d="M849.702128 1024 174.297872 1024C126.169872 1024 87.148936 984.979064 87.148936 936.851064L87.148936 152.510638C87.148936 104.382638 126.169872 65.361702 174.297872 65.361702L283.234043 65.361702 283.234043 43.574468C283.234043 19.499574 302.733617 0 326.808511 0L697.191489 0C721.266383 0 740.765957 19.499574 740.765957 43.574468L740.765957 65.361702 849.702128 65.361702C897.830128 65.361702 936.851064 104.382638 936.851064 152.510638L936.851064 936.851064C936.851064 984.979064 897.830128 1024 849.702128 1024ZM697.191489 65.361702C697.191489 53.335149 687.430809 43.574468 675.404255 43.574468L348.595745 43.574468C336.569191 43.574468 326.808511 53.335149 326.808511 65.361702L326.808511 108.93617C326.808511 120.962723 336.569191 130.723404 348.595745 130.723404L675.404255 130.723404C687.430809 130.723404 697.191489 120.962723 697.191489 108.93617L697.191489 65.361702ZM893.276596 152.510638C893.276596 128.435745 873.777021 108.93617 849.702128 108.93617L740.765957 108.93617 740.765957 130.723404C740.765957 154.798298 721.266383 174.297872 697.191489 174.297872L326.808511 174.297872C302.733617 174.297872 283.234043 154.798298 283.234043 130.723404L283.234043 108.93617 174.297872 108.93617C150.222979 108.93617 130.723404 128.435745 130.723404 152.510638L130.723404 936.851064C130.723404 960.925957 150.222979 980.425532 174.297872 980.425532L849.702128 980.425532C873.777021 980.425532 893.276596 960.925957 893.276596 936.851064L893.276596 152.510638ZM261.446809 762.553191 762.553191 762.553191 762.553191 806.12766 261.446809 806.12766 261.446809 762.553191ZM261.446809 544.680851 762.553191 544.680851 762.553191 588.255319 261.446809 588.255319 261.446809 544.680851ZM261.446809 326.808511 762.553191 326.808511 762.553191 370.382979 261.446809 370.382979 261.446809 326.808511Z" p-id="6846" fill="#c29f63"></path></svg>